<?xml version="1.0" encoding="UTF-8" standalone="no"?>
<!-- Created with Inkscape (http://www.inkscape.org/) -->

<svg
   xmlns:dc="http://purl.org/dc/elements/1.1/"
   xmlns:cc="http://creativecommons.org/ns#"
   xmlns:rdf="http://www.w3.org/1999/02/22-rdf-syntax-ns#"
   xmlns:svg="http://www.w3.org/2000/svg"
   xmlns="http://www.w3.org/2000/svg"
   xmlns:sodipodi="http://sodipodi.sourceforge.net/DTD/sodipodi-0.dtd"
   xmlns:inkscape="http://www.inkscape.org/namespaces/inkscape"
   width="210mm"
   height="297mm"
   viewBox="0 0 210 297"
   version="1.1"
   id="svg1553"
   inkscape:version="0.92.2 2405546, 2018-03-11"
   sodipodi:docname="logo.svg">
  <defs
     id="defs1547" />
  <sodipodi:namedview
     id="base"
     pagecolor="#ffffff"
     bordercolor="#666666"
     borderopacity="1.0"
     inkscape:pageopacity="0.0"
     inkscape:pageshadow="2"
     inkscape:zoom="0.35"
     inkscape:cx="-1067.134"
     inkscape:cy="1108.8813"
     inkscape:document-units="mm"
     inkscape:current-layer="layer1"
     showgrid="false"
     inkscape:window-width="1920"
     inkscape:window-height="1023"
     inkscape:window-x="0"
     inkscape:window-y="0"
     inkscape:window-maximized="1" />
  <metadata
     id="metadata1550">
    <rdf:RDF>
      <cc:Work
         rdf:about="">
        <dc:format>image/svg+xml</dc:format>
        <dc:type
           rdf:resource="http://purl.org/dc/dcmitype/StillImage" />
        <dc:title></dc:title>
      </cc:Work>
    </rdf:RDF>
  </metadata>
  <g
     inkscape:label="Layer 1"
     inkscape:groupmode="layer"
     id="layer1">
    <path
       style="fill:none;stroke:#000000;stroke-width:0.60527325px;stroke-linecap:butt;stroke-linejoin:miter;stroke-opacity:1"
       d="M 77.963628,138.01919 106.21598,113.19611"
       id="path2102"
       inkscape:connector-curvature="0" />
    <path
       inkscape:connector-curvature="0"
       id="path2104"
       d="m 108.36932,110.68053 23.61392,29.69899"
       style="fill:none;stroke:#000000;stroke-width:0.60527325px;stroke-linecap:butt;stroke-linejoin:miter;stroke-opacity:1" />
    <path
       style="fill:none;stroke:#000000;stroke-width:0.60527325px;stroke-linecap:butt;stroke-linejoin:miter;stroke-opacity:1"
       d="m 136.62168,85.857463 69.4413,26.892797 -74.07974,27.62926"
       id="path2106"
       inkscape:connector-curvature="0" />
    <path
       style="fill:none;stroke:#000000;stroke-width:0.60527325px;stroke-linecap:butt;stroke-linejoin:miter;stroke-opacity:1"
       d="m 108.36932,110.68053 97.69366,2.06973"
       id="path2108"
       inkscape:connector-curvature="0" />
    <path
       inkscape:connector-curvature="0"
       id="path2110"
       d="M 129.8299,142.89513 106.21598,113.19611"
       style="fill:none;stroke:#000000;stroke-width:0.60527325px;stroke-linecap:butt;stroke-linejoin:miter;stroke-opacity:1" />
    <path
       style="fill:none;stroke:#000000;stroke-width:0.60527325px;stroke-linecap:butt;stroke-linejoin:miter;stroke-opacity:1"
       d="m 108.36932,110.68053 23.61392,29.69899"
       id="path2112"
       inkscape:connector-curvature="0" />
    <path
       inkscape:connector-curvature="0"
       id="path2114"
       d="M 129.8299,142.89513 104.24704,215.89215 77.963628,138.01919"
       style="fill:none;stroke:#000000;stroke-width:0.60527325px;stroke-linecap:butt;stroke-linejoin:miter;stroke-opacity:1" />
    <path
       inkscape:connector-curvature="0"
       id="path2116"
       d="m 106.21598,113.19611 -1.96894,102.69604"
       style="fill:none;stroke:#000000;stroke-width:0.60527325px;stroke-linecap:butt;stroke-linejoin:miter;stroke-opacity:1" />
    <path
       style="fill:none;stroke:#000000;stroke-width:0.60527325px;stroke-linecap:butt;stroke-linejoin:miter;stroke-opacity:1"
       d="M 106.57719,109.2399 134.82953,84.416839"
       id="path2118"
       inkscape:connector-curvature="0" />
    <path
       inkscape:connector-curvature="0"
       id="path2120"
       d="M 82.963269,79.540899 106.57719,109.2399"
       style="fill:none;stroke:#000000;stroke-width:0.60527325px;stroke-linecap:butt;stroke-linejoin:miter;stroke-opacity:1" />
    <path
       style="fill:none;stroke:#000000;stroke-width:0.60527325px;stroke-linecap:butt;stroke-linejoin:miter;stroke-opacity:1"
       d="M 82.963269,79.540899 108.54613,6.5438674 134.82953,84.416839"
       id="path2122"
       inkscape:connector-curvature="0" />
    <path
       style="fill:none;stroke:#000000;stroke-width:0.60527325px;stroke-linecap:butt;stroke-linejoin:miter;stroke-opacity:1"
       d="M 106.57719,109.2399 108.54613,6.5438542"
       id="path2124"
       inkscape:connector-curvature="0" />
    <path
       style="fill:none;stroke:#000000;stroke-width:0.60527325px;stroke-linecap:butt;stroke-linejoin:miter;stroke-opacity:1"
       d="m 75.71964,135.75559 28.25234,-24.82307"
       id="path2134"
       inkscape:connector-curvature="0" />
    <path
       inkscape:connector-curvature="0"
       id="path2136"
       d="M 80.358055,81.233521 103.97198,110.93252"
       style="fill:none;stroke:#000000;stroke-width:0.60527325px;stroke-linecap:butt;stroke-linejoin:miter;stroke-opacity:1" />
    <path
       inkscape:connector-curvature="0"
       id="path2138"
       d="M 75.719625,135.75559 6.2783155,108.86275 80.358055,81.233521"
       style="fill:none;stroke:#000000;stroke-width:0.60527325px;stroke-linecap:butt;stroke-linejoin:miter;stroke-opacity:1" />
    <path
       inkscape:connector-curvature="0"
       id="path2140"
       d="m 6.2783155,108.86275 97.6936645,2.06977"
       style="fill:none;stroke:#000000;stroke-width:0.60527325px;stroke-linecap:butt;stroke-linejoin:miter;stroke-opacity:1" />
    <path
       style="fill:none;stroke:#000000;stroke-width:0.60527325px;stroke-linecap:butt;stroke-linejoin:miter;stroke-opacity:1"
       d="m 84.860838,67.683441 c 0,0 0,0 -4.005929,10.860086 -10.01483,3.435338 -10.01483,3.435338 -10.01483,3.435338"
       id="path2146"
       inkscape:connector-curvature="0" />
    <path
       style="fill:none;stroke:#000000;stroke-width:0.60527325px;stroke-linecap:butt;stroke-linejoin:miter;stroke-opacity:1"
       d="M 70.840079,81.978865 67.150397,63.915654 84.860838,67.683441"
       id="path2148"
       inkscape:connector-curvature="0" />
    <path
       style="fill:none;stroke:#000000;stroke-width:0.60527325px;stroke-linecap:butt;stroke-linejoin:miter;stroke-opacity:1"
       d="M 137.04336,83.197832 C 150.95871,68.79161 150.95871,68.79161 150.95871,68.79161"
       id="path2150"
       inkscape:connector-curvature="0" />
    <path
       inkscape:connector-curvature="0"
       id="path2152"
       d="m 84.860838,67.683441 c 0,0 0,0 -4.005929,10.860086 -10.01483,3.435338 -10.01483,3.435338 -10.01483,3.435338"
       style="fill:none;stroke:#000000;stroke-width:0.60527325px;stroke-linecap:butt;stroke-linejoin:miter;stroke-opacity:1" />
    <path
       style="fill:none;stroke:#000000;stroke-width:0.60527325px;stroke-linecap:butt;stroke-linejoin:miter;stroke-opacity:1"
       d="M 136.62168,85.857463 108.36932,110.68053"
       id="path2154"
       inkscape:connector-curvature="0" />
    <path
       style="fill:none;stroke:#000000;stroke-width:0.60527325px;stroke-linecap:butt;stroke-linejoin:miter;stroke-opacity:1"
       d="m 147.37444,87.408886 c 0,0 0,0 -10.33108,-4.211054 -3.26802,-10.52763 -3.26802,-10.52763 -3.26802,-10.52763"
       id="path2156"
       inkscape:connector-curvature="0" />
    <path
       style="fill:none;stroke:#000000;stroke-width:0.60527325px;stroke-linecap:butt;stroke-linejoin:miter;stroke-opacity:1"
       d="m 133.77534,72.670202 17.18337,-3.878592 -3.58427,18.617276"
       id="path2158"
       inkscape:connector-curvature="0" />
    <path
       style="fill:none;stroke:#000000;stroke-width:0.60527325px;stroke-linecap:butt;stroke-linejoin:miter;stroke-opacity:1"
       d="m 65.252856,134.39542 c 0,0 0,0 10.331097,4.21107 3.267999,10.5276 3.267999,10.5276 3.267999,10.5276"
       id="path2164"
       inkscape:connector-curvature="0" />
    <path
       inkscape:connector-curvature="0"
       id="path2166"
       d="m 128.18816,154.01005 c 0,0 0,0 4.00594,-10.86008 10.01482,-3.43535 10.01482,-3.43535 10.01482,-3.43535"
       style="fill:none;stroke:#000000;stroke-width:0.60527325px;stroke-linecap:butt;stroke-linejoin:miter;stroke-opacity:1" />
    <path
       inkscape:connector-curvature="0"
       id="path2170"
       d="m 133.77534,72.670202 17.18337,-3.878592 -3.58427,18.617276"
       style="fill:none;stroke:#000000;stroke-width:0.60527325px;stroke-linecap:butt;stroke-linejoin:miter;stroke-opacity:1" />
    <path
       style="fill:none;stroke:#000000;stroke-width:0.60527325px;stroke-linecap:butt;stroke-linejoin:miter;stroke-opacity:1"
       d="m 78.851952,149.13409 -17.18333,3.87859 3.584264,-18.61728"
       id="path2172"
       inkscape:connector-curvature="0" />
    <path
       inkscape:connector-curvature="0"
       id="path2174"
       d="m 142.20892,139.71462 3.68965,18.06321 -17.71044,-3.76781"
       style="fill:none;stroke:#000000;stroke-width:0.60527325px;stroke-linecap:butt;stroke-linejoin:miter;stroke-opacity:1" />
    <path
       style="fill:none;stroke:#000000;stroke-width:0.60527325px;stroke-linecap:butt;stroke-linejoin:miter;stroke-opacity:1"
       d="M 75.583953,138.60649 61.668622,153.01268"
       id="path2176"
       inkscape:connector-curvature="0" />
    <path
       style="fill:none;stroke:#000000;stroke-width:0.60527325px;stroke-linecap:butt;stroke-linejoin:miter;stroke-opacity:1"
       d="m 132.1941,143.14997 13.70447,14.62786"
       id="path2178"
       inkscape:connector-curvature="0" />
    <path
       style="fill:none;stroke:#000000;stroke-width:0.60527325px;stroke-linecap:butt;stroke-linejoin:miter;stroke-opacity:1"
       d="M 67.150397,63.915654 80.854909,78.543527"
       id="path2180"
       inkscape:connector-curvature="0" />
    <path
       style="fill:#00c8ff;fill-opacity:1;stroke:none;stroke-width:0.07642731"
       d="M 78.489943,110.05339 C 45.472657,109.34159 38.506752,109.1943 23.030213,108.88078 15.404497,108.72637 8.9640065,108.57522 8.7180204,108.54503 L 8.2707626,108.4903 44.264375,95.066704 c 19.79649,-7.382957 36.002131,-13.412735 36.012529,-13.399484 0.01033,0.01325 5.149136,6.477885 11.419414,14.365879 6.270272,7.888001 11.425882,14.384991 11.456902,14.437761 0.0734,0.12487 2.00176,0.15762 -24.663277,-0.41733 z"
       id="path2182"
       inkscape:connector-curvature="0" />
    <path
       style="fill:#00c8ff;fill-opacity:1;stroke:none;stroke-width:0.21616901"
       d="m 107.05646,103.82992 c 0.0734,-2.48552 0.50876,-24.615837 0.96758,-49.178464 0.45882,-24.562633 0.85763,-44.8823646 0.88621,-45.1549701 0.0286,-0.2726062 5.74464,16.3686041 12.7023,36.9804661 6.95769,20.611864 12.67585,37.546285 12.70704,37.63205 0.0427,0.11707 -24.01386,21.425698 -26.893,23.821148 l -0.50346,0.41891 z"
       id="path2186"
       inkscape:connector-curvature="0" />
    <path
       style="fill:#00c8ff;fill-opacity:1;stroke:none;stroke-width:0.21616901"
       d="m 120.792,125.62254 c -6.23754,-7.84645 -11.28811,-14.32186 -11.22349,-14.38977 0.0647,-0.0678 12.52588,0.14064 27.6917,0.46349 15.16583,0.32285 35.16443,0.73674 44.44132,0.91975 9.27688,0.18301 17.97832,0.40586 19.33652,0.49525 l 2.46945,0.16254 -30.19469,11.2583 c -16.60712,6.19209 -32.66638,12.18048 -35.68728,13.30754 l -5.49256,2.04918 z"
       id="path2188"
       inkscape:connector-curvature="0" />
    <path
       style="fill:#00c8c8;fill-opacity:1;stroke:none;stroke-width:0.21616901"
       d="m 103.64144,212.78759 c -0.66817,-1.70417 -25.142144,-74.47782 -25.094319,-74.61828 0.04824,-0.1415 27.235079,-24.11165 27.264179,-24.03831 0.006,0.0169 -0.39137,20.67453 -0.88392,45.90761 -0.49254,25.23306 -0.92472,47.57381 -0.9604,49.6461 -0.0559,3.24434 -0.10105,3.67542 -0.32554,3.10288 z"
       id="path2190"
       inkscape:connector-curvature="0" />
    <path
       style="fill:#0096c8;fill-opacity:1;stroke:none;stroke-width:0.21616901"
       d="m 104.76518,209.46308 c 0.0588,-2.1942 0.48173,-24.08613 0.93961,-48.64876 0.45787,-24.56264 0.85627,-45.05826 0.88535,-45.54588 l 0.0529,-0.88652 11.34823,14.2759 c 7.20823,9.06781 11.31417,14.4043 11.2549,14.62786 -0.0834,0.3145 -23.61371,67.49259 -24.30545,69.39109 -0.24759,0.67956 -0.26935,0.28113 -0.17553,-3.21369 z"
       id="path2202"
       inkscape:connector-curvature="0" />
    <path
       style="fill:#0096c8;fill-opacity:1;stroke:none;stroke-width:0.21616901"
       d="M 42.363302,122.39075 C 9.3486892,109.60786 9.0958937,109.50544 10.401203,109.43921 c 1.119301,-0.0568 25.987987,0.43873 64.299795,1.28121 5.276238,0.11606 13.198494,0.27664 17.605023,0.3569 4.406517,0.0804 8.548549,0.20834 9.204499,0.28464 l 1.19266,0.13863 -12.231792,10.74927 c -6.727497,5.9121 -12.816457,11.26145 -13.531035,11.88742 l -1.299237,1.13815 z"
       id="path2204"
       inkscape:connector-curvature="0" />
    <path
       style="fill:#0096c8;fill-opacity:1;stroke:none;stroke-width:0.21616901"
       d="M 94.712087,93.652851 83.417862,79.441725 95.66296,44.495297 c 8.79131,-25.089611 12.26645,-34.7588962 12.32083,-34.281531 0.12303,1.079622 -1.68731,96.816734 -1.83893,97.252194 -0.10695,0.3071 -2.71768,-2.84721 -11.432773,-13.813109 z"
       id="path2206"
       inkscape:connector-curvature="0" />
    <path
       style="fill:#0096c8;fill-opacity:1;stroke:none;stroke-width:0.21616901"
       d="m 185.9183,111.9286 c -6.84172,-0.1561 -25.01073,-0.54316 -40.37557,-0.86012 -15.36485,-0.31697 -29.74153,-0.64858 -31.94819,-0.73693 l -4.01207,-0.16068 13.5661,-11.922048 13.56607,-11.922042 33.45703,12.966459 33.45705,12.966471 -2.63548,-0.0237 c -1.44951,-0.0136 -8.23324,-0.15135 -15.07494,-0.3075 z"
       id="path2208"
       inkscape:connector-curvature="0" />
    <path
       style="fill:#0096c8;fill-opacity:1;stroke:none;stroke-width:0.10808451"
       d="m 62.86315,152.33791 c 0,-0.086 12.446522,-12.93989 12.529885,-12.93989 0.08541,0 3.022928,9.40206 2.955748,9.46023 -0.02301,0.0199 -3.433574,0.79993 -7.57919,1.73352 -4.145614,0.93355 -7.620493,1.71997 -7.721957,1.74754 -0.101491,0.0277 -0.184486,0.0271 -0.184486,-5.9e-4 z"
       id="path2210"
       inkscape:connector-curvature="0" />
    <path
       style="fill:#0096c8;fill-opacity:1;stroke:none;stroke-width:0.10808451"
       d="m 139.05724,149.95091 c -3.40045,-3.63778 -6.16969,-6.62776 -6.15388,-6.64437 0.0335,-0.0352 8.82113,-3.03913 8.95754,-3.06203 0.079,-0.0136 3.47091,16.22389 3.40388,16.29438 -0.0133,0.0136 -2.80709,-2.9502 -6.20754,-6.58798 z"
       id="path2212"
       inkscape:connector-curvature="0" />
    <path
       style="fill:#0096c8;fill-opacity:1;stroke:none;stroke-width:0.10808451"
       d="m 137.13304,82.311372 c -0.1968,-0.561181 -2.89088,-9.340191 -2.872,-9.358802 0.0573,-0.05645 15.394,-3.483646 15.42829,-3.447606 0.0389,0.04072 -11.23077,11.758264 -12.05655,12.535907 -0.31648,0.298041 -0.4624,0.377008 -0.49974,0.270501 z"
       id="path2214"
       inkscape:connector-curvature="0" />
    <path
       style="fill:#00c8fa;fill-opacity:1;stroke:none;stroke-width:0.10808451"
       d="m 71.03284,81.1913 c -0.325794,-1.424227 -3.210733,-15.777159 -3.186541,-15.853446 0.02876,-0.0905 12.212323,12.79194 12.280432,12.984808 0.02433,0.06903 -8.766828,3.132394 -8.959797,3.122087 -0.04234,-0.003 -0.102673,-0.116331 -0.134094,-0.253449 z"
       id="path2216"
       inkscape:connector-curvature="0" />
    <path
       style="fill:#00c8fa;fill-opacity:1;stroke:none;stroke-width:0.10808451"
       d="m 74.536012,71.27649 c -3.40646,-3.643558 -6.133716,-6.638261 -6.060547,-6.654893 0.122882,-0.02792 15.802651,3.278025 15.866729,3.345385 0.01577,0.01662 -0.771488,2.198049 -1.749386,4.847791 -0.977913,2.64974 -1.797185,4.87816 -1.820612,4.952039 -0.02345,0.07385 -2.829708,-2.846757 -6.236184,-6.490322 z"
       id="path2218"
       inkscape:connector-curvature="0" />
    <path
       style="fill:#00c8fa;fill-opacity:1;stroke:none;stroke-width:0.10808451"
       d="m 142.35968,84.980398 c -2.51639,-1.030723 -4.59234,-1.891963 -4.61318,-1.913871 -0.0208,-0.02191 2.789,-2.969198 6.24409,-6.54954 3.45511,-3.580347 6.30007,-6.4907 6.32219,-6.46745 0.0775,0.08143 -3.17965,16.751641 -3.27821,16.778119 -0.0548,0.01529 -2.15847,-0.816543 -4.67489,-1.847258 z"
       id="path2220"
       inkscape:connector-curvature="0" />
    <path
       style="fill:#00c8fa;fill-opacity:1;stroke:none;stroke-width:0.10808451"
       d="m 136.57756,155.43506 c -5.2197,-1.1159 -7.82738,-1.71843 -7.82738,-1.8086 0,-0.10995 3.12709,-8.69709 3.47396,-9.53959 0.0913,-0.22184 0.41262,0.0901 3.76717,3.65698 2.01703,2.14472 4.82885,5.13371 6.2485,6.6422 1.69968,1.80603 2.51015,2.73927 2.37317,2.73257 -0.11448,-0.006 -3.73037,-0.76318 -8.03542,-1.68356 z"
       id="path2222"
       inkscape:connector-curvature="0" />
    <path
       style="fill:#00c8fa;fill-opacity:1;stroke:none;stroke-width:0.10808451"
       d="m 62.336053,151.54274 c 0,-0.17706 3.151106,-16.60754 3.190036,-16.63348 0.03939,-0.0262 9.056703,3.67077 9.224416,3.78198 0.112998,0.0748 -1.360811,1.66561 -6.071495,6.55319 -3.421374,3.54988 -6.248176,6.4543 -6.28181,6.4543 -0.03364,0 -0.06108,-0.0702 -0.06108,-0.15592 z"
       id="path2224"
       inkscape:connector-curvature="0" />
    <path
       style="fill:#0096c8;fill-opacity:1;stroke:none;stroke-width:0.10808451"
       d="m 71.085859,81.282877 c 0,-0.02582 -0.210612,-1.060566 -0.468032,-2.299447 -0.988844,-4.759158 -2.702016,-13.418744 -2.662835,-13.45993 0.02257,-0.02378 2.762174,2.834493 6.087986,6.35164 l 6.046904,6.394806 -0.311604,0.141922 c -0.610578,0.278121 -8.29148,2.917942 -8.490098,2.917942 -0.11123,0 -0.202321,-0.02116 -0.202321,-0.0469 z"
       id="path2226"
       inkscape:connector-curvature="0" />
  </g>
</svg>
